<svg width="14" height="12" viewBox="0 0 14 12" fill="none" xmlns="http://www.w3.org/2000/svg">
<path fill-rule="evenodd" clip-rule="evenodd" d="M1.66732 0.666992C0.930938 0.666992 0.333984 1.26395 0.333984 2.00033V10.0003C0.333984 10.7367 0.930938 11.3337 1.66732 11.3337H8.33398C9.07038 11.3337 9.66732 10.7367 9.66732 10.0003V8.12493C9.66732 8.07166 9.72665 8.03986 9.77098 8.06939L12.6309 9.97599C13.0739 10.2714 13.6673 9.95379 13.6673 9.42133V2.57934C13.6673 2.04687 13.0739 1.72928 12.6309 2.02464L9.77098 3.93123C9.72665 3.96077 9.66732 3.92901 9.66732 3.87576V2.00033C9.66732 1.26395 9.07038 0.666992 8.33398 0.666992H1.66732Z" fill="#707070"/>
</svg>
